<?xml version="1.0" encoding="utf-8"?>
<!-- Generator: Adobe Illustrator 19.0.0, SVG Export Plug-In . SVG Version: 6.00 Build 0)  -->
<svg version="1.1" id="Layer_1" xmlns="http://www.w3.org/2000/svg" xmlns:xlink="http://www.w3.org/1999/xlink" x="0px" y="0px"
	 viewBox="0 0 360 360" style="enable-background:new 0 0 360 360;" xml:space="preserve">
<style type="text/css">
	.st0{fill:#28EBCF;}
</style>
<g id="XMLID_11_">
	<g id="XMLID_1_">
		<path id="XMLID_2_" d="M55.4,191c-0.9,0-1.7-0.3-2.1-0.8c-0.5-0.5-0.7-1.2-0.7-2.2v-18.7h-6.5c-0.8,0-1.4-0.2-1.8-0.6
			c-0.4-0.4-0.6-1-0.6-1.7c0-0.8,0.2-1.3,0.6-1.8c0.4-0.4,1-0.6,1.8-0.6h18.8c0.8,0,1.4,0.2,1.8,0.6c0.4,0.4,0.6,1,0.6,1.8
			c0,0.7-0.2,1.3-0.6,1.7c-0.4,0.4-1,0.6-1.8,0.6h-6.5V188c0,0.9-0.2,1.7-0.7,2.2C57,190.7,56.3,191,55.4,191z"/>
		<path id="XMLID_4_" d="M80.2,191.1c-2.6,0-4.8-0.6-6.7-1.7c-1.9-1.1-3.4-2.7-4.5-4.7s-1.6-4.4-1.6-7.1c0-2,0.3-3.9,0.9-5.5
			c0.6-1.6,1.5-3,2.6-4.2c1.1-1.2,2.5-2.1,4.1-2.7s3.3-1,5.3-1c2.6,0,4.9,0.6,6.8,1.7c1.9,1.1,3.4,2.7,4.5,4.7c1.1,2,1.6,4.4,1.6,7
			c0,2-0.3,3.9-0.9,5.5c-0.6,1.7-1.5,3.1-2.6,4.3c-1.1,1.2-2.5,2.1-4.1,2.7C83.9,190.7,82.1,191.1,80.2,191.1z M80.2,186.2
			c1.5,0,2.7-0.3,3.7-1c1-0.7,1.8-1.7,2.4-3s0.8-2.8,0.8-4.6c0-2.7-0.6-4.8-1.8-6.3c-1.2-1.5-2.9-2.2-5.1-2.2c-1.4,0-2.7,0.3-3.7,1
			c-1,0.7-1.8,1.6-2.4,2.9c-0.5,1.3-0.8,2.8-0.8,4.6c0,2.7,0.6,4.8,1.8,6.3C76.3,185.4,78,186.2,80.2,186.2z"/>
		<path id="XMLID_7_" d="M100.4,191c-0.9,0-1.7-0.3-2.1-0.8s-0.7-1.2-0.7-2.2v-20.5c0-1,0.3-1.7,0.8-2.2c0.5-0.5,1.2-0.7,2.2-0.7h9
			c2.9,0,5.2,0.7,6.7,2.2c1.6,1.5,2.4,3.5,2.4,6.1c0,2.6-0.8,4.7-2.4,6.1c-1.6,1.5-3.8,2.2-6.7,2.2h-6.2v6.8c0,0.9-0.2,1.7-0.7,2.2
			C102,190.7,101.3,191,100.4,191z M103.2,176.8h5.2c1.5,0,2.6-0.3,3.4-1c0.8-0.7,1.2-1.6,1.2-2.9s-0.4-2.2-1.2-2.9
			c-0.8-0.6-1.9-1-3.4-1h-5.2V176.8z"/>
		<path id="XMLID_12_" d="M140.9,191.1c-1.3,0-2.6-0.2-3.9-0.5c-1.3-0.3-2.6-0.8-3.7-1.4c-0.6-0.3-1-0.7-1.2-1.2
			c-0.2-0.5-0.3-0.9-0.2-1.4c0.1-0.5,0.3-0.9,0.6-1.3c0.3-0.4,0.7-0.6,1.2-0.7c0.5-0.1,1,0,1.6,0.3c0.9,0.4,1.7,0.8,2.6,1
			c0.9,0.2,1.8,0.4,2.8,0.4s1.7-0.2,2.4-0.5s1.2-0.8,1.5-1.3c0.3-0.6,0.5-1.2,0.5-2c0-1.2-0.4-2.1-1.1-2.8s-1.8-1.1-3.1-1.1
			c-0.6,0-1.3,0.1-1.9,0.3c-0.7,0.2-1.3,0.6-2,1.1c-0.2,0.2-0.6,0.4-1,0.6c-0.4,0.2-0.8,0.3-1.3,0.3c-0.8,0-1.3-0.2-1.7-0.5
			c-0.4-0.4-0.6-0.9-0.6-1.6v-11.6c0-0.8,0.2-1.4,0.6-1.8c0.4-0.4,1-0.6,1.8-0.6h11.9c0.8,0,1.4,0.2,1.8,0.6c0.4,0.4,0.6,1,0.6,1.8
			c0,0.7-0.2,1.3-0.6,1.7c-0.4,0.4-1,0.6-1.8,0.6h-8.8v7.1h-1.4c0.6-0.8,1.4-1.4,2.4-1.8c1-0.4,2.1-0.6,3.3-0.6
			c1.7,0,3.1,0.4,4.3,1.1c1.2,0.7,2.2,1.7,2.9,2.9c0.7,1.3,1,2.7,1,4.4c0,1.7-0.4,3.2-1.2,4.6c-0.8,1.3-1.9,2.3-3.4,3.1
			C144.6,190.7,142.9,191.1,140.9,191.1z"/>
		<path id="XMLID_14_" d="M167.9,190.7c-1,0-1.7-0.3-2.2-0.8s-0.8-1.3-0.8-2.2v-20.1c0-1,0.3-1.7,0.8-2.2s1.3-0.8,2.2-0.8h8.9
			c1.8,0,3.4,0.3,4.7,0.8c1.3,0.5,2.3,1.3,3,2.3s1,2.2,1,3.6c0,1.6-0.4,2.9-1.3,4c-0.9,1.1-2.1,1.8-3.7,2.2v-0.6
			c1.8,0.3,3.2,1,4.2,2.1c1,1.1,1.5,2.5,1.5,4.3c0,2.3-0.8,4.1-2.4,5.4c-1.6,1.3-3.8,1.9-6.6,1.9H167.9z M170.3,175.3h5.5
			c1.4,0,2.5-0.3,3.2-0.8c0.7-0.5,1-1.4,1-2.4c0-1.1-0.3-1.9-1-2.4c-0.7-0.5-1.8-0.8-3.2-0.8h-5.5V175.3z M170.3,186.4h6.1
			c1.5,0,2.6-0.3,3.3-0.9c0.7-0.6,1-1.4,1-2.6c0-1.1-0.3-2-1-2.6c-0.7-0.6-1.8-0.9-3.3-0.9h-6.1V186.4z"/>
		<path id="XMLID_18_" d="M193.5,191c-0.9,0-1.7-0.3-2.1-0.8c-0.5-0.5-0.7-1.2-0.7-2.2v-20.5c0-1,0.3-1.7,0.8-2.2
			c0.5-0.5,1.2-0.7,2.2-0.7h9c2.9,0,5.2,0.7,6.7,2.1s2.4,3.4,2.4,5.9c0,1.6-0.4,3-1.1,4.2c-0.7,1.2-1.7,2.1-3.1,2.7
			c-1.3,0.6-3,1-4.9,1l0.3-0.6h1.5c1,0,1.9,0.3,2.7,0.8c0.8,0.5,1.4,1.3,2,2.3l2.3,4.3c0.3,0.6,0.5,1.2,0.5,1.8
			c0,0.6-0.2,1.1-0.7,1.4c-0.4,0.4-1,0.6-1.8,0.6s-1.5-0.2-2-0.5c-0.5-0.3-1-0.9-1.3-1.6l-3.5-6.5c-0.4-0.7-0.8-1.2-1.3-1.4
			s-1.2-0.4-1.9-0.4h-2.8v7.5c0,0.9-0.2,1.7-0.7,2.2S194.4,191,193.5,191z M196.3,176.4h5.1c1.5,0,2.7-0.3,3.5-0.9s1.2-1.5,1.2-2.8
			c0-1.2-0.4-2.1-1.2-2.7c-0.8-0.6-1.9-0.9-3.5-0.9h-5.1V176.4z"/>
		<path id="XMLID_21_" d="M228.2,191.1c-2.6,0-4.8-0.6-6.7-1.7c-1.9-1.1-3.4-2.7-4.5-4.7s-1.6-4.4-1.6-7.1c0-2,0.3-3.9,0.9-5.5
			c0.6-1.6,1.5-3,2.6-4.2s2.5-2.1,4.1-2.7c1.6-0.6,3.3-1,5.3-1c2.6,0,4.9,0.6,6.8,1.7c1.9,1.1,3.4,2.7,4.5,4.7c1.1,2,1.6,4.4,1.6,7
			c0,2-0.3,3.9-0.9,5.5s-1.5,3.1-2.6,4.3s-2.5,2.1-4.1,2.7C231.9,190.7,230.2,191.1,228.2,191.1z M228.2,186.2c1.5,0,2.7-0.3,3.7-1
			c1-0.7,1.8-1.7,2.4-3s0.8-2.8,0.8-4.6c0-2.7-0.6-4.8-1.8-6.3c-1.2-1.5-2.9-2.2-5.1-2.2c-1.4,0-2.7,0.3-3.7,1
			c-1,0.7-1.8,1.6-2.4,2.9c-0.5,1.3-0.8,2.8-0.8,4.6c0,2.7,0.6,4.8,1.8,6.3C224.4,185.4,226,186.2,228.2,186.2z"/>
		<path id="XMLID_24_" d="M248.4,191c-0.9,0-1.7-0.3-2.1-0.8c-0.5-0.5-0.7-1.2-0.7-2.2v-20.9c0-0.9,0.2-1.7,0.7-2.2
			c0.5-0.5,1.2-0.8,2.1-0.8c0.9,0,1.6,0.3,2.1,0.8c0.5,0.5,0.7,1.2,0.7,2.2v8.8h0.1l9.8-10.3c0.4-0.4,0.9-0.8,1.3-1
			c0.5-0.2,1-0.4,1.6-0.4c0.9,0,1.5,0.2,1.9,0.7c0.4,0.4,0.5,1,0.5,1.6c0,0.6-0.3,1.1-0.8,1.7l-9.9,10.1l0-2.5l10.4,11.1
			c0.6,0.6,0.9,1.2,0.9,1.9c0,0.6-0.2,1.2-0.6,1.6c-0.4,0.4-1.1,0.6-1.9,0.6c-0.7,0-1.3-0.1-1.7-0.4c-0.4-0.3-0.9-0.7-1.4-1.3
			l-10-10.5h-0.1v9.3c0,0.9-0.2,1.7-0.7,2.2S249.4,191,248.4,191z"/>
		<path id="XMLID_26_" d="M274,190.7c-1,0-1.7-0.3-2.2-0.8c-0.5-0.5-0.8-1.3-0.8-2.2v-20.1c0-1,0.3-1.7,0.8-2.2
			c0.5-0.5,1.3-0.8,2.2-0.8h12.9c0.7,0,1.3,0.2,1.7,0.6c0.4,0.4,0.6,0.9,0.6,1.6c0,0.7-0.2,1.3-0.6,1.7c-0.4,0.4-0.9,0.6-1.7,0.6
			h-10.4v6.1h9.6c0.8,0,1.3,0.2,1.7,0.6c0.4,0.4,0.6,0.9,0.6,1.7c0,0.7-0.2,1.3-0.6,1.7c-0.4,0.4-1,0.6-1.7,0.6h-9.6v6.5h10.4
			c0.7,0,1.3,0.2,1.7,0.6c0.4,0.4,0.6,0.9,0.6,1.6c0,0.7-0.2,1.3-0.6,1.7c-0.4,0.4-0.9,0.6-1.7,0.6H274z"/>
		<path id="XMLID_28_" d="M296.3,191c-0.9,0-1.7-0.3-2.1-0.8c-0.5-0.5-0.7-1.2-0.7-2.2v-20.5c0-1,0.3-1.7,0.8-2.2
			c0.5-0.5,1.2-0.7,2.2-0.7h9c2.9,0,5.2,0.7,6.7,2.1s2.4,3.4,2.4,5.9c0,1.6-0.4,3-1.1,4.2c-0.7,1.2-1.7,2.1-3.1,2.7
			c-1.3,0.6-3,1-4.9,1l0.3-0.6h1.5c1,0,1.9,0.3,2.7,0.8c0.8,0.5,1.4,1.3,2,2.3l2.3,4.3c0.3,0.6,0.5,1.2,0.5,1.8
			c0,0.6-0.2,1.1-0.7,1.4c-0.4,0.4-1,0.6-1.8,0.6s-1.5-0.2-2-0.5c-0.5-0.3-1-0.9-1.3-1.6l-3.5-6.5c-0.4-0.7-0.8-1.2-1.3-1.4
			s-1.2-0.4-1.9-0.4h-2.8v7.5c0,0.9-0.2,1.7-0.7,2.2S297.2,191,296.3,191z M299.1,176.4h5.1c1.5,0,2.7-0.3,3.5-0.9s1.2-1.5,1.2-2.8
			c0-1.2-0.4-2.1-1.2-2.7c-0.8-0.6-1.9-0.9-3.5-0.9h-5.1V176.4z"/>
	</g>
	<circle id="XMLID_10_" class="st0" cx="81.9" cy="181.3" r="4.1"/>
</g>
</svg>
